<svg id="Layer_1" data-name="Layer 1" xmlns="https://www.w3.org/2000/svg" viewBox="0 0 8.81 10.5"><defs><style>.cls-1{fill:#888;}</style></defs><title>apple-gray</title><path class="cls-1" d="M7.38,5.55a1.93,1.93,0,0,0,.17.85A2.35,2.35,0,0,0,8.81,7.71,6,6,0,0,1,8,9.42,2.21,2.21,0,0,1,6.42,10.5a2.42,2.42,0,0,1-.84-.21,2.89,2.89,0,0,0-1-.21,3.16,3.16,0,0,0-1,.23,2.18,2.18,0,0,1-.75.19,1.52,1.52,0,0,1-1.1-.56A5.73,5.73,0,0,1,.87,8.72,8,8,0,0,1,.33,7.57,6.12,6.12,0,0,1,0,5.67,3.47,3.47,0,0,1,.4,3.94a2.53,2.53,0,0,1,1-1,2.84,2.84,0,0,1,1.3-.41,3.74,3.74,0,0,1,1.14.28A2.36,2.36,0,0,0,4.48,3a2.26,2.26,0,0,0,.58-.16c.3-.11.53-.19.71-.24a2.12,2.12,0,0,1,.79-.09,2.57,2.57,0,0,1,2,1.05A2.19,2.19,0,0,0,7.38,5.55ZM6.05,1.69h0a1.93,1.93,0,0,1-1.62.8A2.11,2.11,0,0,1,5,.82,2.23,2.23,0,0,1,5.74.26,2,2,0,0,1,6.61,0,2.26,2.26,0,0,1,6.05,1.69Z" transform="translate(0 0)"/></svg>