<svg id="Layer_1" data-name="Layer 1" xmlns="https://www.w3.org/2000/svg" viewBox="0 0 8.81 10.5"><title>apple</title><path d="M7.38,5.55a1.82,1.82,0,0,0,.17.85A2.37,2.37,0,0,0,8.81,7.71,6.11,6.11,0,0,1,8,9.42,2.2,2.2,0,0,1,6.42,10.5a2.32,2.32,0,0,1-.84-.21,2.88,2.88,0,0,0-1-.21,3.08,3.08,0,0,0-1,.23,2.24,2.24,0,0,1-.75.19,1.52,1.52,0,0,1-1.1-.56A5.75,5.75,0,0,1,.87,8.72,7.19,7.19,0,0,1,.33,7.57,6,6,0,0,1,0,5.67,3.48,3.48,0,0,1,.4,3.94a2.53,2.53,0,0,1,1-1A2.83,2.83,0,0,1,2.7,2.53a3.64,3.64,0,0,1,1.14.28A2.31,2.31,0,0,0,4.48,3a2.12,2.12,0,0,0,.58-.16c.3-.11.53-.19.71-.24a2.28,2.28,0,0,1,.79-.09,2.56,2.56,0,0,1,2,1.05A2.18,2.18,0,0,0,7.38,5.55ZM6.05,1.69v0a1.94,1.94,0,0,1-1.62.8A2.1,2.1,0,0,1,5,.82,2.28,2.28,0,0,1,5.74.26,2.16,2.16,0,0,1,6.61,0,2.27,2.27,0,0,1,6.05,1.69Z"/></svg>