<svg id="Layer_1" data-name="Layer 1" xmlns="https://www.w3.org/2000/svg" viewBox="0 0 10.48 10.46"><defs><style>.cls-1{fill:#888;}</style></defs><title>instagram-gray</title><path class="cls-1" d="M10.48,3.07V7.44a4.2,4.2,0,0,1-.19,1.16A2.82,2.82,0,0,1,8.6,10.27a4.2,4.2,0,0,1-1.16.19H3.06a3.51,3.51,0,0,1-1.16-.22,2.48,2.48,0,0,1-1-.62,2.79,2.79,0,0,1-.65-1A4.36,4.36,0,0,1,0,7.44V3.06A4.12,4.12,0,0,1,.23,1.9,2.76,2.76,0,0,1,1.9.23,4.12,4.12,0,0,1,3.06,0H7.44A4.12,4.12,0,0,1,8.6.23,2.76,2.76,0,0,1,10.27,1.9,4.64,4.64,0,0,1,10.48,3.07ZM9.35,8.34a4.47,4.47,0,0,0,.19-1.26V3.42a4.47,4.47,0,0,0-.19-1.26,1.7,1.7,0,0,0-1-1A4.18,4.18,0,0,0,7.08,1L5.62.94H4.88L3.42,1a4.47,4.47,0,0,0-1.26.19,1.7,1.7,0,0,0-1,1A4.24,4.24,0,0,0,1,3.42V7.08a4.47,4.47,0,0,0,.19,1.26,1.76,1.76,0,0,0,1,1,4.47,4.47,0,0,0,1.26.19H7.11a4.47,4.47,0,0,0,1.26-.19A1.75,1.75,0,0,0,9.35,8.34ZM5.25,2.55a2.72,2.72,0,1,1-1.35.37A2.69,2.69,0,0,1,5.25,2.55ZM5.25,7a1.65,1.65,0,0,0,1.24-.52A1.68,1.68,0,0,0,7,5.25,1.68,1.68,0,0,0,6.49,4a1.65,1.65,0,0,0-1.24-.52A1.68,1.68,0,0,0,4,4a1.65,1.65,0,0,0-.52,1.24A1.76,1.76,0,0,0,5.25,7ZM8.7,2.44a.66.66,0,0,0-.64-.64.65.65,0,0,0-.63.64.6.6,0,0,0,.19.44.6.6,0,0,0,.85,0l0,0A.81.81,0,0,0,8.7,2.44Z" transform="translate(0 0)"/></svg>