<svg id="Layer_1" data-name="Layer 1" xmlns="https://www.w3.org/2000/svg" viewBox="0 0 10.5 10.5"><title>instagram</title><path d="M10.48,3.07c0,.44,0,1.16,0,2.18s0,1.75,0,2.19a4.26,4.26,0,0,1-.19,1.16A2.8,2.8,0,0,1,8.6,10.27a4.26,4.26,0,0,1-1.16.19c-.44,0-1.17,0-2.19,0s-1.75,0-2.19,0a3.57,3.57,0,0,1-1.16-.22,2.45,2.45,0,0,1-1-.62,2.87,2.87,0,0,1-.65-1A4.26,4.26,0,0,1,0,7.44C0,7,0,6.27,0,5.25S0,3.5,0,3.06A4.26,4.26,0,0,1,.23,1.9,2.8,2.8,0,0,1,1.9.23,4.26,4.26,0,0,1,3.06,0C3.5,0,4.23,0,5.25,0S7,0,7.44,0A4.26,4.26,0,0,1,8.6.23,2.8,2.8,0,0,1,10.27,1.9,4.71,4.71,0,0,1,10.48,3.07ZM9.35,8.34a4.5,4.5,0,0,0,.19-1.26c0-.35,0-.83,0-1.46V4.88c0-.65,0-1.13,0-1.46a4.37,4.37,0,0,0-.19-1.26,1.68,1.68,0,0,0-1-1A4.37,4.37,0,0,0,7.08,1L5.62.94H4.88L3.42,1a4.5,4.5,0,0,0-1.26.19,1.68,1.68,0,0,0-1,1A4.37,4.37,0,0,0,1,3.42c0,.35,0,.83,0,1.46v.74c0,.63,0,1.11,0,1.46a4.5,4.5,0,0,0,.19,1.26,1.76,1.76,0,0,0,1,1,4.5,4.5,0,0,0,1.26.19l1.46,0h.74l1.46,0a4.37,4.37,0,0,0,1.26-.19A1.76,1.76,0,0,0,9.35,8.34ZM5.25,2.55a2.72,2.72,0,1,1-1.35.37A2.69,2.69,0,0,1,5.25,2.55ZM5.25,7a1.67,1.67,0,0,0,1.24-.52A1.67,1.67,0,0,0,7,5.25,1.67,1.67,0,0,0,6.49,4a1.67,1.67,0,0,0-1.24-.52A1.67,1.67,0,0,0,4,4a1.67,1.67,0,0,0-.52,1.24A1.67,1.67,0,0,0,4,6.49,1.67,1.67,0,0,0,5.25,7ZM8.7,2.44a.65.65,0,0,0-.64-.64.65.65,0,0,0-.63.64.58.58,0,0,0,.19.44.6.6,0,0,0,.88,0A.78.78,0,0,0,8.7,2.44Z"/></svg>