<svg id="Layer_1" data-name="Layer 1" xmlns="https://www.w3.org/2000/svg" viewBox="0 0 11.63 11.63"><title>spotify</title><path d="M5.81,0A5.58,5.58,0,0,1,8.72.79a5.82,5.82,0,0,1,2.12,2.12,5.66,5.66,0,0,1,.78,2.9,5.67,5.67,0,0,1-.78,2.91,5.82,5.82,0,0,1-2.12,2.12,5.67,5.67,0,0,1-2.91.78,5.66,5.66,0,0,1-2.9-.78A5.82,5.82,0,0,1,.79,8.72,5.58,5.58,0,0,1,0,5.81a5.57,5.57,0,0,1,.79-2.9A5.82,5.82,0,0,1,2.91.79,5.57,5.57,0,0,1,5.81,0ZM9.54,5.23a.57.57,0,0,0,.54-.54.58.58,0,0,0-.31-.54A8.86,8.86,0,0,0,7.52,3.3,11.93,11.93,0,0,0,5,3,9.47,9.47,0,0,0,2.2,3.4.56.56,0,0,0,1.8,4,.57.57,0,0,0,2,4.34a.49.49,0,0,0,.38.16,1.05,1.05,0,0,0,.26,0l0,0A9.17,9.17,0,0,1,6,4.22a7.72,7.72,0,0,1,3.21.91A.52.52,0,0,0,9.54,5.23ZM8.81,7a.44.44,0,0,0,.45-.45A.54.54,0,0,0,9,6.09a7.36,7.36,0,0,0-1.95-.78A9.06,9.06,0,0,0,4.83,5a8.81,8.81,0,0,0-2.28.3.48.48,0,0,0-.37.5.41.41,0,0,0,.14.31.44.44,0,0,0,.33.13l.19,0,.09,0a7.39,7.39,0,0,1,3-.18,7.25,7.25,0,0,1,2.6.86l0,0A.72.72,0,0,0,8.81,7ZM8.18,8.55a.35.35,0,0,0,.25-.1.35.35,0,0,0,.1-.26A.37.37,0,0,0,8.47,8,.53.53,0,0,0,8.3,7.8a7.43,7.43,0,0,0-5.56-.6.36.36,0,0,0-.3.39.37.37,0,0,0,.09.25A.33.33,0,0,0,2.79,8l.23,0,0,0a6.53,6.53,0,0,1,4.85.56A.51.51,0,0,0,8.18,8.55Z"/></svg>