<svg id="Layer_1" data-name="Layer 1" xmlns="https://www.w3.org/2000/svg" viewBox="0 0 11.62 11.62"><defs><style>.cls-1{fill:#888;}</style></defs><title>spotify-gray</title><path class="cls-1" d="M5.81,0A5.54,5.54,0,0,1,8.72.79a5.82,5.82,0,0,1,2.12,2.12,5.59,5.59,0,0,1,.78,2.9,5.62,5.62,0,0,1-.78,2.91,5.82,5.82,0,0,1-2.12,2.12,5.62,5.62,0,0,1-2.91.78,5.59,5.59,0,0,1-2.9-.78A5.82,5.82,0,0,1,.79,8.72,5.54,5.54,0,0,1,0,5.81a5.6,5.6,0,0,1,.79-2.9A5.82,5.82,0,0,1,2.91.79,5.6,5.6,0,0,1,5.81,0ZM9.54,5.23a.57.57,0,0,0,.54-.54.58.58,0,0,0-.31-.54A9,9,0,0,0,7.52,3.3,11.89,11.89,0,0,0,5,3a9.48,9.48,0,0,0-2.8.4.56.56,0,0,0-.4.6.55.55,0,0,0,.2.34.47.47,0,0,0,.38.16h.26A9.06,9.06,0,0,1,6,4.22a7.85,7.85,0,0,1,3.21.91A.5.5,0,0,0,9.54,5.23ZM8.81,7a.44.44,0,0,0,.45-.43v0A.54.54,0,0,0,9,6.09a7.65,7.65,0,0,0-1.95-.78A9.22,9.22,0,0,0,4.83,5a8.76,8.76,0,0,0-2.28.3.48.48,0,0,0-.37.5.41.41,0,0,0,.14.31.46.46,0,0,0,.33.13h.28a7.41,7.41,0,0,1,3-.18,7.25,7.25,0,0,1,2.6.86h0A.69.69,0,0,0,8.81,7ZM8.18,8.55a.35.35,0,0,0,.25-.1.35.35,0,0,0,.1-.26A.33.33,0,0,0,8.47,8a.55.55,0,0,0-.17-.2,7.42,7.42,0,0,0-5.56-.6.36.36,0,0,0-.3.39.38.38,0,0,0,.09.25A.35.35,0,0,0,2.79,8H3a6.5,6.5,0,0,1,4.85.56A.47.47,0,0,0,8.18,8.55Z" transform="translate(0 0)"/></svg>