<svg id="Layer_1" data-name="Layer 1" xmlns="https://www.w3.org/2000/svg" viewBox="0 0 12 9.75"><defs><style>.cls-1{fill:#888;}</style></defs><title>twitter-gray</title><path class="cls-1" d="M10.78,2.74A7,7,0,0,1,10,6,6.69,6.69,0,0,1,7.59,8.65a6.83,6.83,0,0,1-3.82,1.1A6.8,6.8,0,0,1,0,8.65H.59a4.91,4.91,0,0,0,3.07-1,2.32,2.32,0,0,1-1.45-.48A2.53,2.53,0,0,1,1.36,6,3.27,3.27,0,0,0,1.8,6a3,3,0,0,0,.66-.07A2.56,2.56,0,0,1,1.05,5,2.38,2.38,0,0,1,.49,3.47V3.42a2.35,2.35,0,0,0,1.1.33A2.6,2.6,0,0,1,.8,2.86,2.24,2.24,0,0,1,.49,1.68,2.34,2.34,0,0,1,.84.45,6.81,6.81,0,0,0,3.08,2.27,6.64,6.64,0,0,0,5.91,3a2.62,2.62,0,0,1,0-.56,2.41,2.41,0,0,1,.33-1.23A2.35,2.35,0,0,1,8.3,0a2.3,2.3,0,0,1,1,.21,2.86,2.86,0,0,1,.81.56A4.82,4.82,0,0,0,11.67.19a2.47,2.47,0,0,1-1.08,1.36A5.69,5.69,0,0,0,12,1.15a5.43,5.43,0,0,1-1.24,1.29C10.77,2.54,10.78,2.64,10.78,2.74Z" transform="translate(0 0)"/></svg>