<svg id="Layer_1" data-name="Layer 1" xmlns="https://www.w3.org/2000/svg" viewBox="0 0 12.77 9"><defs><style>.cls-1{fill:#888;}</style></defs><title>youtube-gray</title><path class="cls-1" d="M12.54,1.41a9.51,9.51,0,0,1,.23,1.92V5.67a10.39,10.39,0,0,1-.23,2,1.69,1.69,0,0,1-.42.7,1.79,1.79,0,0,1-.73.42A17.13,17.13,0,0,1,8.53,9H4.27a17.07,17.07,0,0,1-2.86-.24,1.58,1.58,0,0,1-.73-.42,1.69,1.69,0,0,1-.42-.7,11,11,0,0,1-.26-2V3.33A11.22,11.22,0,0,1,.26,1.41,1.63,1.63,0,0,1,1.41.26,16.1,16.1,0,0,1,4.27,0H8.53a17.07,17.07,0,0,1,2.86.24,1.79,1.79,0,0,1,.73.42A1.7,1.7,0,0,1,12.54,1.41Zm-7.45,5L8.44,4.5,5.09,2.6Z" transform="translate(0 0)"/></svg>