<svg id="Layer_1" data-name="Layer 1" xmlns="https://www.w3.org/2000/svg" viewBox="0 0 12.8 9"><title>youtube</title><path d="M12.54,1.41a10,10,0,0,1,.23,1.92l0,1.17,0,1.17a10.13,10.13,0,0,1-.23,2,1.69,1.69,0,0,1-.42.7,1.73,1.73,0,0,1-.73.42A16.77,16.77,0,0,1,8.53,9L6.4,9,4.27,9a16.65,16.65,0,0,1-2.86-.24,1.62,1.62,0,0,1-.73-.42,1.69,1.69,0,0,1-.42-.7A10.81,10.81,0,0,1,0,5.67L0,4.5c0-.34,0-.73,0-1.17A10.66,10.66,0,0,1,.26,1.41,1.62,1.62,0,0,1,1.41.26,16.65,16.65,0,0,1,4.27,0L6.4,0,8.53,0a16.77,16.77,0,0,1,2.86.24,1.73,1.73,0,0,1,.73.42A1.62,1.62,0,0,1,12.54,1.41Zm-7.45,5L8.44,4.5,5.09,2.6Z"/></svg>